<svg width="518" height="520" viewBox="0 0 518 520" fill="none" xmlns="http://www.w3.org/2000/svg">
<path d="M254.77 172.004C305.938 172.004 346.569 215.398 346.569 266.631C346.569 292.271 338.601 312.597 324.28 326.514C309.957 340.433 289.223 347.996 263.589 347.996C212.454 347.996 171.318 298.781 171.318 247.512C171.318 221.877 179.401 203.027 193.821 190.578C208.255 178.117 229.109 172.004 254.77 172.004Z" stroke="#DABA72"/>
<path d="M253.008 137.703C324.124 137.703 380.583 198.011 380.583 269.202C380.583 304.82 369.512 333.078 349.595 352.433C329.677 371.79 300.854 382.297 265.246 382.297C194.164 382.297 137.017 313.898 137.017 242.671C137.017 207.058 148.248 180.843 168.31 163.523C188.385 146.192 217.374 137.703 253.008 137.703Z" stroke="#DABA72"/>
<path d="M251.247 103.402C342.31 103.402 414.597 180.624 414.597 271.772C414.597 317.368 400.423 353.56 374.911 378.353C349.396 403.148 312.484 416.598 266.903 416.598C175.873 416.598 102.716 329.014 102.716 237.831C102.716 192.239 117.095 158.659 142.799 136.468C168.515 114.267 205.639 103.402 251.247 103.402Z" stroke="#DABA72"/>
<path d="M250.171 69.1016C361.182 69.1016 449.297 163.237 449.297 274.342C449.297 329.917 432.021 374.041 400.913 404.272C369.802 434.505 324.801 450.898 269.246 450.898C158.269 450.898 69.1016 344.131 69.1016 232.99C69.1016 177.419 86.6285 136.475 117.974 109.414C149.331 82.342 194.59 69.1016 250.171 69.1016Z" stroke="#DABA72"/>
<path d="M248.41 34.8008C379.368 34.8008 483.311 145.85 483.311 276.912C483.311 342.466 462.932 394.523 426.228 430.192C389.522 465.863 336.432 485.199 270.903 485.199C139.979 485.199 34.8008 359.248 34.8008 228.15C34.8008 162.6 55.4757 114.291 92.4623 82.3591C129.461 50.417 182.855 34.8008 248.41 34.8008Z" stroke="#DABA72"/>
<path d="M246.649 0.499989C397.553 0.499983 517.324 128.463 517.324 279.482C517.324 355.015 493.844 415.004 451.544 456.111C409.242 497.22 348.062 519.5 272.56 519.5C121.689 519.5 0.499994 374.365 0.499987 223.309C0.499984 147.781 24.323 92.1065 66.951 55.3045C109.591 18.4919 171.12 0.499993 246.649 0.499989Z" stroke="#DABA72"/>
</svg>
