<svg width="744" height="591" viewBox="0 0 744 591" fill="none" xmlns="http://www.w3.org/2000/svg">
<path d="M479.858 287.63C479.858 313.319 464.318 336.635 442.251 353.551C420.187 370.465 391.673 380.917 365.885 380.917C314.224 380.917 264.571 346.706 264.571 295.286C264.571 269.592 278.867 248.302 299.665 233.416C320.467 218.527 347.733 210.08 373.545 210.08C399.382 210.08 425.986 216.626 446.114 229.602C466.23 242.569 479.858 261.938 479.858 287.63Z" stroke="#DABA72"/>
<path d="M532.564 283.792C532.564 322.117 509.383 356.871 476.514 382.068C443.648 407.261 401.172 422.836 362.742 422.836C285.798 422.836 211.757 371.873 211.757 295.184C211.757 256.854 233.084 225.111 264.074 202.93C295.068 180.747 335.686 168.164 374.139 168.164C412.617 168.164 452.25 177.912 482.246 197.248C512.229 216.576 532.564 245.465 532.564 283.792Z" stroke="#DABA72"/>
<path d="M585.267 279.953C585.267 330.913 554.445 377.106 510.775 410.582C467.107 444.056 410.67 464.752 359.599 464.752C257.372 464.752 158.943 397.04 158.943 295.08C158.943 244.116 187.301 201.919 228.483 172.444C269.668 142.967 323.638 126.248 374.733 126.248C425.852 126.248 478.512 139.198 518.375 164.895C558.226 190.583 585.267 228.991 585.267 279.953Z" stroke="#DABA72"/>
<path d="M585.267 279.953C585.267 330.913 554.445 377.106 510.775 410.582C467.107 444.056 410.67 464.752 359.599 464.752C257.372 464.752 158.943 397.04 158.943 295.08C158.943 244.116 187.301 201.919 228.483 172.444C269.668 142.967 323.638 126.248 374.733 126.248C425.852 126.248 478.512 139.198 518.375 164.895C558.226 190.583 585.267 228.991 585.267 279.953Z" stroke="#DABA72"/>
<path d="M637.97 276.115C637.97 339.709 599.507 397.341 545.035 439.097C490.566 480.851 420.167 506.668 356.455 506.668C228.946 506.668 106.128 422.206 106.128 294.976C106.128 231.377 141.518 178.727 192.891 141.958C244.268 105.186 311.59 84.3322 375.326 84.3322C439.086 84.3322 504.774 100.484 554.504 132.541C604.222 164.59 637.97 212.517 637.97 276.115Z" stroke="#DABA72"/>
<path d="M690.674 272.276C690.674 348.505 644.569 417.576 579.296 467.612C514.026 517.646 429.665 548.584 353.311 548.584C200.52 548.584 53.3145 447.371 53.3145 294.872C53.3145 218.638 95.735 155.536 157.3 111.472C218.869 67.4057 299.542 42.4161 375.919 42.4161C452.321 42.4161 531.036 61.7695 590.633 100.187C650.218 138.597 690.674 196.044 690.674 272.276Z" stroke="#DABA72"/>
<path d="M743.377 268.437C743.377 357.301 689.631 437.81 613.557 496.127C537.485 554.441 439.162 590.5 350.167 590.5C172.094 590.5 0.5 472.537 0.5 294.769C0.5 205.9 49.9518 132.344 121.709 80.9859C193.469 29.6253 287.494 0.5 376.512 0.5C465.556 0.5 557.298 23.0553 626.762 67.8337C696.215 112.604 743.377 179.57 743.377 268.437Z" stroke="#DABA72"/>
</svg>
