<svg width="598" height="600" viewBox="0 0 598 600" fill="none" xmlns="http://www.w3.org/2000/svg">
<path d="M293.965 198.389C353.051 198.389 399.965 248.497 399.965 307.651C399.965 337.251 390.765 360.726 374.223 376.802C357.679 392.879 333.735 401.611 304.142 401.611C245.089 401.611 197.598 344.781 197.598 285.59C197.598 255.995 206.93 234.222 223.59 219.839C240.263 205.445 264.346 198.389 293.965 198.389Z" stroke="#DABA72"/>
<path d="M291.932 158.811C374.034 158.811 439.211 228.435 439.211 310.617C439.211 351.731 426.431 384.359 403.433 406.709C380.432 429.061 347.154 441.189 306.053 441.189C223.984 441.189 158.02 362.223 158.02 280.005C158.02 238.896 170.984 208.625 194.154 188.622C217.335 168.609 250.805 158.811 291.932 158.811Z" stroke="#DABA72"/>
<path d="M289.9 119.233C395.018 119.233 478.458 208.373 478.458 313.583C478.458 366.21 462.098 407.991 432.643 436.616C403.186 465.242 360.574 480.766 307.965 480.766C202.88 480.766 118.442 379.666 118.442 274.42C118.442 221.797 135.039 183.028 164.718 157.405C194.409 131.772 237.265 119.233 289.9 119.233Z" stroke="#DABA72"/>
<path d="M288.659 79.6555C416.794 79.6555 518.496 188.311 518.496 316.548C518.496 380.69 498.557 431.624 462.645 466.523C426.731 501.424 374.786 520.344 310.668 520.344C182.568 520.344 79.6558 397.108 79.6558 268.834C79.6557 204.698 99.8851 157.43 136.073 126.188C172.274 94.9354 224.516 79.6555 288.659 79.6555Z" stroke="#DABA72"/>
<path d="M286.627 40.0776C437.777 40.0776 557.743 168.249 557.743 319.514C557.743 395.169 534.224 455.256 491.855 496.43C449.484 537.606 388.205 559.922 312.58 559.922C161.463 559.922 40.0776 414.55 40.0776 263.249C40.0776 187.599 63.9393 131.833 106.637 94.9712C149.347 58.0987 210.975 40.0776 286.627 40.0776Z" stroke="#DABA72"/>
<path d="M284.595 0.500049C458.761 0.500041 596.99 148.187 596.99 322.48C596.99 409.649 569.891 478.889 521.066 526.337C472.238 573.788 401.625 599.5 314.492 599.5C140.359 599.5 0.499993 431.993 0.499985 257.664C0.499981 170.5 27.9941 106.236 77.2009 63.7547C126.42 21.2625 197.435 0.500052 284.595 0.500049Z" stroke="#DABA72"/>
</svg>
