<svg width="62" height="63" viewBox="0 0 62 63" fill="none" xmlns="http://www.w3.org/2000/svg">
<path d="M30.5038 41.2261C36.3702 41.2261 41.055 36.2448 41.055 30.3363C41.055 27.3593 40.132 25.049 38.5197 23.4821C36.9054 21.9133 34.5431 21.0345 31.5598 21.0345C25.7268 21.0345 20.9521 26.6809 20.9521 32.6255C20.9521 35.5979 21.8855 37.7205 23.494 39.1092C25.1149 40.5085 27.4943 41.2261 30.5038 41.2261Z" stroke="#DABA72"/>
<path d="M30.2929 45.3329C38.5476 45.3329 45.1275 38.3266 45.1275 30.0285C45.1275 25.8568 43.833 22.5967 41.5507 20.3787C39.2664 18.1588 35.9356 16.9276 31.7581 16.9276C23.5368 16.9276 16.8452 24.8709 16.8452 33.2051C16.8452 37.3721 18.1554 40.3766 20.4395 42.3484C22.7358 44.3309 26.0892 45.3329 30.2929 45.3329Z" stroke="#DABA72"/>
<path d="M30.0824 49.4398C40.7255 49.4398 49.2005 40.4084 49.2005 29.7208C49.2005 24.3543 47.5345 20.1444 44.5822 17.2753C41.6279 14.4044 37.3286 12.8207 31.957 12.8207C21.3473 12.8207 12.7388 23.061 12.7388 33.7846C12.7388 39.1465 14.4259 43.0327 17.3854 45.5877C20.3572 48.1534 24.6846 49.4398 30.0824 49.4398Z" stroke="#DABA72"/>
<path d="M29.9535 53.5467C42.9849 53.5467 53.355 42.4901 53.355 29.4131C53.355 22.8518 51.3176 17.6921 47.6953 14.172C44.071 10.6499 38.8031 8.71381 32.2374 8.71381C19.2394 8.71381 8.71387 21.251 8.71387 34.3642C8.71387 40.9208 10.7779 45.6889 14.4129 48.8271C18.0601 51.9758 23.3615 53.5467 29.9535 53.5467Z" stroke="#DABA72"/>
<path d="M29.7426 57.6536C45.1623 57.6536 57.4275 44.5719 57.4275 29.1053C57.4275 21.3493 55.0186 15.2398 50.7263 11.0685C46.4321 6.89536 40.1957 4.60687 32.4357 4.60687C17.0494 4.60687 4.60693 19.4411 4.60693 34.9437C4.60693 42.6951 7.04792 48.345 11.3583 52.0663C15.681 55.7982 21.9564 57.6536 29.7426 57.6536Z" stroke="#DABA72"/>
<path d="M29.5317 61.7605C47.3397 61.7605 61.5 46.6537 61.5 28.7976C61.5 19.8468 58.7197 12.7875 53.7574 7.96516C48.7931 3.1409 41.5882 0.500002 32.6341 0.500001C14.8594 0.500001 0.499999 17.6311 0.499998 35.5233C0.499998 44.4694 3.31791 51.0012 8.30378 55.3056C13.3019 59.6207 20.5513 61.7605 29.5317 61.7605Z" stroke="#DABA72"/>
</svg>
