<svg width="758" height="519" viewBox="0 0 758 519" fill="none" xmlns="http://www.w3.org/2000/svg">
<path d="M507.5 254.613C507.5 286.26 492.658 309.346 469.882 324.54C447.086 339.747 416.328 347.053 384.549 347.053C352.681 347.053 319.129 346.742 293.542 338.507C280.76 334.392 270.006 328.312 262.449 319.34C254.898 310.376 250.5 298.482 250.5 282.666C250.5 266.91 257.668 252.086 269.473 238.692C281.279 225.297 297.698 213.361 316.128 203.4C352.995 183.473 397.802 171.5 429.551 171.5C461.382 171.5 480.793 176.495 492.289 189.268C503.799 202.058 507.5 222.778 507.5 254.613Z" stroke="#DABA72"/>
<path d="M557.5 253.021C557.5 297.005 536.868 329.097 505.215 350.213C473.543 371.341 430.823 381.484 386.699 381.484C342.488 381.484 295.898 381.054 260.36 369.616C242.601 363.9 227.644 355.447 217.126 342.961C206.614 330.483 200.5 313.933 200.5 291.948C200.5 270.023 210.474 249.409 226.875 230.801C243.277 212.192 266.081 195.617 291.667 181.788C342.847 154.124 405.051 137.5 449.144 137.5C493.319 137.5 520.332 144.428 536.343 162.219C552.37 180.026 557.5 208.848 557.5 253.021Z" stroke="#DABA72"/>
<path d="M607.5 251.429C607.5 307.751 581.077 348.848 540.548 375.885C499.999 402.935 445.317 415.915 388.85 415.915C332.295 415.915 272.667 415.367 227.177 400.726C204.443 393.408 185.281 382.583 171.802 366.582C158.331 350.589 150.5 329.383 150.5 301.229C150.5 273.136 163.281 246.733 184.278 222.91C205.275 199.086 234.463 177.873 267.206 160.175C332.698 124.776 412.301 103.5 468.737 103.5C525.256 103.5 559.871 112.361 580.398 135.169C600.94 157.994 607.5 194.919 607.5 251.429Z" stroke="#DABA72"/>
<path d="M657.5 248.837C657.5 317.496 625.287 367.6 575.881 400.558C526.456 433.53 459.811 449.346 391 449.346C322.102 449.346 249.436 448.68 193.995 430.835C166.285 421.916 142.918 408.718 126.479 389.203C110.047 369.696 100.5 343.833 100.5 309.511C100.5 275.249 116.088 243.056 141.68 214.019C167.273 184.981 202.846 159.128 242.745 137.563C322.549 94.4276 419.551 68.5 488.331 68.5C557.193 68.5 599.409 79.2942 624.452 107.12C649.51 134.963 657.5 179.989 657.5 248.837Z" stroke="#DABA72"/>
<path d="M707.5 247.245C707.5 328.242 669.496 387.351 611.214 426.231C552.913 465.124 474.306 483.778 393.151 483.778C311.909 483.778 226.206 482.992 160.813 461.945C128.126 451.424 100.556 435.853 81.1562 412.824C61.7638 389.802 50.5 359.284 50.5 318.792C50.5 278.361 68.8942 240.379 99.0821 206.128C129.271 171.876 171.229 141.384 218.283 115.95C312.4 65.0792 426.8 34.5 507.924 34.5C589.13 34.5 638.948 47.2275 668.506 80.0711C698.08 112.931 707.5 166.06 707.5 247.245Z" stroke="#DABA72"/>
<path d="M757.5 245.653C757.5 338.988 713.706 407.102 646.547 451.904C579.369 496.718 488.8 518.209 395.302 518.209C301.716 518.209 202.975 517.305 127.63 493.054C89.9678 480.932 58.1928 462.989 35.833 436.445C13.4802 409.909 0.5 374.734 0.5 328.074C0.5 281.474 21.7008 237.703 56.4844 198.237C91.2685 158.77 139.611 123.64 193.822 94.338C302.252 35.7308 434.05 0.5 527.517 0.5C621.067 0.5 678.487 15.1607 712.561 53.022C746.65 90.8999 757.5 152.13 757.5 245.653Z" stroke="#DABA72"/>
</svg>
